<?xml version="1.0" encoding="UTF-8" standalone="no"?>
<!-- Created with Inkscape (http://www.inkscape.org/) -->

<svg
   xmlns:dc="http://purl.org/dc/elements/1.1/"
   xmlns:cc="http://creativecommons.org/ns#"
   xmlns:rdf="http://www.w3.org/1999/02/22-rdf-syntax-ns#"
   xmlns:svg="http://www.w3.org/2000/svg"
   xmlns="http://www.w3.org/2000/svg"
   xmlns:sodipodi="http://sodipodi.sourceforge.net/DTD/sodipodi-0.dtd"
   xmlns:inkscape="http://www.inkscape.org/namespaces/inkscape"
   width="58.386475mm"
   height="58.38739mm"
   viewBox="0 0 58.386475 58.38739"
   version="1.1"
   id="svg3778"
   inkscape:version="0.92.3 (2405546, 2018-03-11)"
   sodipodi:docname="clubs.svg">
  <defs
     id="defs3772" />
  <sodipodi:namedview
     id="base"
     pagecolor="#ffffff"
     bordercolor="#666666"
     borderopacity="1.0"
     inkscape:pageopacity="0.0"
     inkscape:pageshadow="2"
     inkscape:zoom="0.35"
     inkscape:cx="205.78947"
     inkscape:cy="88.128299"
     inkscape:document-units="px"
     inkscape:current-layer="layer1"
     showgrid="false"
     fit-margin-top="0"
     fit-margin-left="0"
     fit-margin-right="0"
     fit-margin-bottom="0"
     inkscape:window-width="958"
     inkscape:window-height="488"
     inkscape:window-x="953"
     inkscape:window-y="0"
     inkscape:window-maximized="0" />
  <metadata
     id="metadata3775">
    <rdf:RDF>
      <cc:Work
         rdf:about="">
        <dc:format>image/svg+xml</dc:format>
        <dc:type
           rdf:resource="http://purl.org/dc/dcmitype/StillImage" />
        <dc:title></dc:title>
      </cc:Work>
    </rdf:RDF>
  </metadata>
  <g
     inkscape:label="Capa 1"
     inkscape:groupmode="layer"
     id="layer1"
     transform="translate(-51.384871,-113.76322)">
    <path
       inkscape:connector-curvature="0"
       style="fill:#515262;stroke-width:0.26458332"
       d="m 98.250411,137.32746 c -5.061744,-0.29051 -9.492192,2.50138 -11.617325,6.66751 -0.469106,0.91995 -1.251214,1.64253 -2.231496,1.96664 -0.01217,0.004 -0.02434,0.008 -0.03651,0.0119 -0.833438,0.27464 -1.666346,-0.43577 -1.535642,-1.30387 0.287073,-1.90658 0.737923,-3.75946 1.335881,-5.54566 0.324644,-0.9697 1.034521,-1.74837 1.94654,-2.21113 4.177771,-2.12063 6.979179,-6.55743 6.688402,-11.62764 -0.3556,-6.19839 -5.512065,-11.26173 -11.715221,-11.51176 -6.99188,-0.28204 -12.748684,5.30278 -12.748684,12.23195 0,4.77335 2.737114,8.89794 6.723856,10.91486 0.903817,0.4572 1.605227,1.23031 1.927225,2.19075 0.59981,1.79017 1.052514,3.64755 1.34038,5.55863 0.13044,0.86784 -0.702205,1.57851 -1.535643,1.30387 -0.01244,-0.004 -0.02514,-0.008 -0.03757,-0.0124 -0.979488,-0.32411 -1.761067,-1.04616 -2.229909,-1.96532 -2.124604,-4.16666 -6.555316,-6.95907 -11.617854,-6.66856 -6.198393,0.3556 -11.261724,5.51207 -11.511756,11.71522 -0.281781,6.99188 5.303044,12.74869 12.231952,12.74869 4.758002,0 8.87095,-2.71939 10.895012,-6.6847 0.470959,-0.9226 1.256242,-1.64703 2.239434,-1.97221 0.01138,-0.004 0.02275,-0.008 0.03413,-0.0114 0.833967,-0.27464 1.664495,0.43656 1.535643,1.30492 -0.864395,5.81581 -3.248291,11.13473 -6.73497,15.54295 -0.697442,0.88185 -0.05159,2.17964 1.072885,2.17964 h 15.817852 c 1.124479,0 1.770327,-1.29779 1.072885,-2.17964 -3.486679,-4.40822 -5.870575,-9.72714 -6.734969,-15.54295 -0.129116,-0.86863 0.701411,-1.57956 1.535642,-1.30492 0.01138,0.004 0.02275,0.008 0.03413,0.0114 0.983456,0.32518 1.768475,1.04987 2.239433,1.97221 2.024063,3.96557 6.137011,6.6847 10.895013,6.6847 6.929443,0 12.514003,-5.75707 12.231953,-12.74869 -0.24897,-6.20289 -5.3123,-11.35936 -11.510699,-11.71496 z"
       id="path6" />
    <g
       transform="matrix(0.26458333,0,0,0.26458333,-22.206706,36.683941)"
       id="g18">
      <path
         inkscape:connector-curvature="0"
         style="fill:#464655"
         d="m 308.65,424.663 c 0.77,-19.103 13.619,-35.573 31.022,-41.748 -5.582,-1.957 -11.645,-2.894 -17.982,-2.531 -23.427,1.344 -42.564,20.833 -43.508,44.278 -1.065,26.426 20.043,48.184 46.231,48.184 5.354,0 10.483,-0.929 15.261,-2.604 -18.64,-6.493 -31.871,-24.535 -31.024,-45.579 z"
         id="path8" />
      <path
         inkscape:connector-curvature="0"
         style="fill:#464655"
         d="m 378.26,367.908 c -2.207,-7.398 -5.582,-22.033 -5.582,-30.313 0,-22.934 12.96,-37.32 31,-43.635 -4.205,-1.494 -8.663,-2.41 -13.283,-2.596 -26.427,-1.066 -48.184,20.042 -48.184,46.231 0,17.268 9.489,32.268 23.513,40.208 v 0 c 0.629,0.356 1.253,0.717 1.9,1.044 3.416,1.729 6.069,4.65 7.284,8.28 2.267,6.766 3.979,13.786 5.066,21.009 0.425,2.821 -1.849,5.188 -4.497,5.137 l 0.01,0.035 c 1.078,0.375 7.766,1.109 9.191,-3.328 1.384,-4.303 -0.792,-23.214 -6.418,-42.072 z"
         id="path10" />
      <path
         inkscape:connector-curvature="0"
         style="fill:#464655"
         d="m 455.271,380.385 c -19.131,-1.098 -35.876,9.454 -43.908,25.2 -1.773,3.477 -4.729,6.208 -8.434,7.433 -0.046,0.015 -1.052,0.269 -1.494,0.274 v 0 c 0,0 17.234,2.395 31.021,-15.908 8.131,-10.794 16.877,-15.213 27.98,-16.367 -1.696,-0.299 -3.413,-0.532 -5.165,-0.632 z"
         id="path12" />
      <path
         inkscape:connector-curvature="0"
         style="fill:#464655"
         d="m 455.271,472.765 c -19.131,1.098 -35.876,-9.454 -43.908,-25.2 -1.773,-3.477 -4.729,-6.208 -8.434,-7.433 -0.046,-0.015 -1.052,-0.269 -1.494,-0.274 v 0 c 0,0 17.234,-2.395 31.021,15.908 8.131,10.794 16.877,15.213 27.98,16.367 -1.696,0.299 -3.413,0.531 -5.165,0.632 z"
         id="path14" />
      <path
         inkscape:connector-curvature="0"
         style="fill:#464655"
         d="m 377.057,503.762 c 5.878,-14.782 11.82,-56.143 1.751,-62.445 0,0 1.396,2.254 1.181,3.7 -3.267,21.981 -12.277,42.084 -25.455,58.745 -2.636,3.333 -0.195,8.238 4.055,8.238 h 22.523 c -4.249,0 -5.625,-4.289 -4.055,-8.238 z"
         id="path16" />
    </g>
  </g>
</svg>
