<?xml version="1.0" encoding="UTF-8" standalone="no"?>
<!-- Created with Inkscape (http://www.inkscape.org/) -->

<svg
   xmlns:dc="http://purl.org/dc/elements/1.1/"
   xmlns:cc="http://creativecommons.org/ns#"
   xmlns:rdf="http://www.w3.org/1999/02/22-rdf-syntax-ns#"
   xmlns:svg="http://www.w3.org/2000/svg"
   xmlns="http://www.w3.org/2000/svg"
   xmlns:sodipodi="http://sodipodi.sourceforge.net/DTD/sodipodi-0.dtd"
   xmlns:inkscape="http://www.inkscape.org/namespaces/inkscape"
   width="63.05748mm"
   height="63.067272mm"
   viewBox="0 0 63.05748 63.067272"
   version="1.1"
   id="svg3778"
   inkscape:version="0.92.3 (2405546, 2018-03-11)"
   sodipodi:docname="diamonds.svg">
  <defs
     id="defs3772" />
  <sodipodi:namedview
     id="base"
     pagecolor="#ffffff"
     bordercolor="#666666"
     borderopacity="1.0"
     inkscape:pageopacity="0.0"
     inkscape:pageshadow="2"
     inkscape:zoom="0.35"
     inkscape:cx="203.55947"
     inkscape:cy="94.908946"
     inkscape:document-units="px"
     inkscape:current-layer="layer1"
     showgrid="false"
     fit-margin-top="0"
     fit-margin-left="0"
     fit-margin-right="0"
     fit-margin-bottom="0"
     inkscape:window-width="958"
     inkscape:window-height="488"
     inkscape:window-x="953"
     inkscape:window-y="0"
     inkscape:window-maximized="0" />
  <metadata
     id="metadata3775">
    <rdf:RDF>
      <cc:Work
         rdf:about="">
        <dc:format>image/svg+xml</dc:format>
        <dc:type
           rdf:resource="http://purl.org/dc/dcmitype/StillImage" />
        <dc:title></dc:title>
      </cc:Work>
    </rdf:RDF>
  </metadata>
  <g
     inkscape:label="Capa 1"
     inkscape:groupmode="layer"
     id="layer1"
     transform="translate(-51.974891,-110.87738)">
    <path
       inkscape:connector-curvature="0"
       style="fill:#ff6464;stroke-width:0.26458332"
       d="m 85.27224,111.74991 c 7.566295,9.78641 19.10318,21.32515 28.888,28.89276 1.16284,0.89932 1.16284,2.63737 0,3.53669 -9.78482,7.56761 -21.321705,19.10609 -28.888,28.89276 -0.899318,1.16338 -2.637895,1.16338 -3.53695,0 -7.566289,-9.7864 -19.103181,-21.32515 -28.888002,-28.89276 -1.162843,-0.89932 -1.162843,-2.63737 0,-3.53669 9.784557,-7.56761 21.321448,-19.10635 28.887738,-28.89276 0.899319,-1.16337 2.637631,-1.16337 3.537214,0 z"
       id="path20" />
    <path
       inkscape:connector-curvature="0"
       style="fill:#d2555a;stroke-width:0.26458332"
       d="m 83.231509,173.0716 c -3.489854,-9.78641 -8.810625,-21.32516 -13.323358,-28.89277 -0.536311,-0.89932 -0.536311,-2.63737 0,-3.53668 4.512733,-7.56762 9.833769,-19.1061 13.323358,-28.89277 0.173302,-0.4863 0.52705,-0.69982 0.830792,-0.79454 -0.825765,-0.21379 -1.748896,0.0468 -2.327275,0.79454 -7.56629,9.78667 -19.103181,21.32542 -28.888002,28.89277 -1.162844,0.89931 -1.162844,2.63736 0,3.53668 9.784821,7.56735 21.321712,19.10609 28.888002,28.89277 0.578114,0.74771 1.50151,1.00832 2.32701,0.79454 -0.303477,-0.0945 -0.65696,-0.30798 -0.830527,-0.79454 z"
       id="path22" />
  </g>
</svg>
