<?xml version="1.0" encoding="UTF-8" standalone="no"?>
<!-- Created with Inkscape (http://www.inkscape.org/) -->

<svg
   xmlns:dc="http://purl.org/dc/elements/1.1/"
   xmlns:cc="http://creativecommons.org/ns#"
   xmlns:rdf="http://www.w3.org/1999/02/22-rdf-syntax-ns#"
   xmlns:svg="http://www.w3.org/2000/svg"
   xmlns="http://www.w3.org/2000/svg"
   xmlns:sodipodi="http://sodipodi.sourceforge.net/DTD/sodipodi-0.dtd"
   xmlns:inkscape="http://www.inkscape.org/namespaces/inkscape"
   width="60.722137mm"
   height="54.4412mm"
   viewBox="0 0 60.722138 54.4412"
   version="1.1"
   id="svg3778"
   inkscape:version="0.92.3 (2405546, 2018-03-11)"
   sodipodi:docname="hearts.svg">
  <defs
     id="defs3772" />
  <sodipodi:namedview
     id="base"
     pagecolor="#ffffff"
     bordercolor="#666666"
     borderopacity="1.0"
     inkscape:pageopacity="0.0"
     inkscape:pageshadow="2"
     inkscape:zoom="0.35"
     inkscape:cx="212.59568"
     inkscape:cy="80.647077"
     inkscape:document-units="px"
     inkscape:current-layer="layer1"
     showgrid="false"
     fit-margin-top="0"
     fit-margin-left="0"
     fit-margin-right="0"
     fit-margin-bottom="0"
     inkscape:window-width="958"
     inkscape:window-height="488"
     inkscape:window-x="953"
     inkscape:window-y="0"
     inkscape:window-maximized="0" />
  <metadata
     id="metadata3775">
    <rdf:RDF>
      <cc:Work
         rdf:about="">
        <dc:format>image/svg+xml</dc:format>
        <dc:type
           rdf:resource="http://purl.org/dc/dcmitype/StillImage" />
        <dc:title></dc:title>
      </cc:Work>
    </rdf:RDF>
  </metadata>
  <g
     inkscape:label="Capa 1"
     inkscape:groupmode="layer"
     id="layer1"
     transform="translate(-49.58406,-115.73)">
    <path
       inkscape:connector-curvature="0"
       style="fill:#ff6464;stroke-width:0.26458335"
       d="m 49.58406,132.47627 c 0,-9.24877 7.454371,-16.74627 16.6497,-16.74627 4.557713,0 8.684154,1.84441 11.689027,4.8297 1.114425,1.10676 2.930525,1.10676 4.044686,0 3.005137,-2.98502 7.131579,-4.8297 11.689027,-4.8297 9.19533,0 16.6497,7.4975 16.6497,16.74627 v 0 c 0,17.29555 -22.271302,33.02979 -28.664429,37.18984 -1.033463,0.67257 -2.360084,0.67257 -3.393546,0 C 71.855627,165.50606 49.58406,149.77209 49.58406,132.47627"
       id="path2" />
    <path
       inkscape:connector-curvature="0"
       style="fill:#d2555a;stroke-width:0.26458335"
       d="m 73.005242,117.19103 c -2.070101,-0.93107 -4.35663,-1.46077 -6.771482,-1.46077 -9.195329,0 -16.6497,7.4975 -16.6497,16.74654 0,17.29555 22.271302,33.02979 28.664429,37.18984 0.516732,0.33628 1.106753,0.50456 1.696773,0.50456 -22.753108,-31.05891 -14.657123,-48.43939 -6.94002,-52.98017 z"
       id="path4" />
  </g>
</svg>
