<?xml version="1.0" encoding="UTF-8" standalone="no"?>
<!-- Created with Inkscape (http://www.inkscape.org/) -->

<svg
   xmlns:dc="http://purl.org/dc/elements/1.1/"
   xmlns:cc="http://creativecommons.org/ns#"
   xmlns:rdf="http://www.w3.org/1999/02/22-rdf-syntax-ns#"
   xmlns:svg="http://www.w3.org/2000/svg"
   xmlns="http://www.w3.org/2000/svg"
   xmlns:sodipodi="http://sodipodi.sourceforge.net/DTD/sodipodi-0.dtd"
   xmlns:inkscape="http://www.inkscape.org/namespaces/inkscape"
   width="60.883266mm"
   height="65.393158mm"
   viewBox="0 0 60.883267 65.393158"
   version="1.1"
   id="svg3778"
   inkscape:version="0.92.3 (2405546, 2018-03-11)"
   sodipodi:docname="spades.svg">
  <defs
     id="defs3772" />
  <sodipodi:namedview
     id="base"
     pagecolor="#ffffff"
     bordercolor="#666666"
     borderopacity="1.0"
     inkscape:pageopacity="0.0"
     inkscape:pageshadow="2"
     inkscape:zoom="0.35"
     inkscape:cx="164.39572"
     inkscape:cy="75.726683"
     inkscape:document-units="px"
     inkscape:current-layer="layer1"
     showgrid="false"
     fit-margin-top="0"
     fit-margin-left="0"
     fit-margin-right="0"
     fit-margin-bottom="0"
     inkscape:window-width="958"
     inkscape:window-height="488"
     inkscape:window-x="953"
     inkscape:window-y="0"
     inkscape:window-maximized="0" />
  <metadata
     id="metadata3775">
    <rdf:RDF>
      <cc:Work
         rdf:about="">
        <dc:format>image/svg+xml</dc:format>
        <dc:type
           rdf:resource="http://purl.org/dc/dcmitype/StillImage" />
        <dc:title></dc:title>
      </cc:Work>
    </rdf:RDF>
  </metadata>
  <g
     inkscape:label="Capa 1"
     inkscape:groupmode="layer"
     id="layer1"
     transform="translate(-62.336966,-103.47619)">
    <path
       inkscape:connector-curvature="0"
       style="fill:#515262;stroke-width:0.26458332"
       d="m 93.964992,103.81175 c -0.73342,-0.44741 -1.63989,-0.44741 -2.37305,0 -5.616043,3.42609 -29.254976,18.90236 -29.254976,36.66993 0,9.23448 7.474215,16.72034 16.693885,16.72034 3.017838,0 5.845969,-0.80407 8.286751,-2.20821 0.69982,-0.4027 1.51818,0.30903 1.24354,1.07394 -1.30228,3.62744 -3.14616,6.99267 -5.435864,9.99358 -0.874448,1.14617 -0.03466,2.80802 1.397794,2.80802 h 16.687798 c 1.43298,0 2.27092,-1.66264 1.39594,-2.80935 -2.26377,-2.96703 -4.091248,-6.28967 -5.390618,-9.87001 -0.27596,-0.76041 0.53075,-1.47347 1.23296,-1.08241 2.392358,1.3327 5.144558,2.09444 8.077198,2.09444 9.21993,0 16.69388,-7.48586 16.69388,-16.72034 0,-17.76757 -23.638928,-33.24384 -29.255238,-36.66993 z"
       id="path24" />
    <g
       transform="matrix(0.26458333,0,0,0.26458333,61.184441,103.46699)"
       id="g30">
      <path
         inkscape:connector-curvature="0"
         style="fill:#464655"
         d="M 93.355,197.488 C 22.467,158.235 89.05,40.518 120.031,0.12 118.277,-0.009 116.498,0.343 114.926,1.303 93.7,14.252 4.356,72.745 4.356,139.897 c 0,34.902 28.249,63.195 63.095,63.195 9.242,10e-4 17.999,-2.024 25.904,-5.604 z"
         id="path26" />
      <path
         inkscape:connector-curvature="0"
         style="fill:#464655"
         d="m 107.518,237.961 c 4.08,-33.915 3.903,-43.566 -6.535,-43.566 1.83,0.373 3.236,2.327 2.488,4.411 -4.921,13.71 -11.89,26.428 -20.545,37.771 -3.305,4.331 -0.131,10.613 5.283,10.613 h 23.853 c -4.763,0 -4.951,-5.841 -4.544,-9.229 z"
         id="path28" />
    </g>
  </g>
</svg>
